<svg width="37" height="37" viewBox="0 0 37 37" fill="none" xmlns="http://www.w3.org/2000/svg">
<rect width="36.1702" height="36.1702" rx="18.0851" fill="#F68A51" fill-opacity="0.12"/>
<path d="M28.8501 19.1616V14.8557C28.8501 9.47318 26.6971 7.32019 21.3146 7.32019H14.8557C9.47318 7.32019 7.32019 9.47318 7.32019 14.8557V21.3146C7.32019 26.6971 9.47318 28.8501 14.8557 28.8501H19.1616" stroke="#F68A51" stroke-width="1.61474" stroke-linecap="round" stroke-linejoin="round"/>
<path d="M28.8501 19.1616V14.8557C28.8501 9.47318 26.6971 7.32019 21.3146 7.32019H14.8557C9.47318 7.32019 7.32019 9.47318 7.32019 14.8557V21.3146C7.32019 26.6971 9.47318 28.8501 14.8557 28.8501H19.1616" stroke="#F68A51" stroke-width="1.61474" stroke-linecap="round" stroke-linejoin="round"/>
<path d="M28.8501 19.1616V14.8557C28.8501 9.47318 26.6971 7.32019 21.3146 7.32019H14.8557C9.47318 7.32019 7.32019 9.47318 7.32019 14.8557V21.3146C7.32019 26.6971 9.47318 28.8501 14.8557 28.8501H19.1616" stroke="#F68A51" stroke-width="1.61474" stroke-linecap="round" stroke-linejoin="round"/>
<path d="M22.3911 26.0835L24.0919 27.7736L27.7735 23.4676" stroke="#F68A51" stroke-width="1.61474" stroke-linecap="round" stroke-linejoin="round"/>
<path d="M12.7026 16.4703V19.6998" stroke="#F68A51" stroke-width="1.61474" stroke-linecap="round" stroke-linejoin="round"/>
<path d="M18.0851 16.4703V19.6998" stroke="#F68A51" stroke-width="1.61474" stroke-linecap="round" stroke-linejoin="round"/>
<path d="M23.4677 16.4703V19.6998" stroke="#F68A51" stroke-width="1.61474" stroke-linecap="round" stroke-linejoin="round"/>
</svg>
