<svg width="37" height="37" viewBox="0 0 37 37" fill="none" xmlns="http://www.w3.org/2000/svg">
<rect width="36.1702" height="36.1702" rx="18.0851" fill="#0099DA" fill-opacity="0.16"/>
<g clip-path="url(#clip0_14_595)">
<path d="M27.7735 25.3513V26.1587C27.7735 27.0152 27.4333 27.8366 26.8276 28.4423C26.222 29.0479 25.4006 29.3882 24.5441 29.3882H18.8925" stroke="#0099DA" stroke-width="1.61474" stroke-linecap="round" stroke-linejoin="round"/>
<path d="M27.7736 18.0851H24.5441C24.1158 18.0851 23.7051 18.2552 23.4023 18.558C23.0995 18.8608 22.9293 19.2715 22.9293 19.6998V23.7367C22.9293 24.1649 23.0995 24.5756 23.4023 24.8784C23.7051 25.1813 24.1158 25.3514 24.5441 25.3514H27.7736V18.0851ZM27.7736 18.0851C27.7736 16.8128 27.523 15.5529 27.0361 14.3774C26.5492 13.202 25.8355 12.1339 24.9359 11.2343C24.0362 10.3346 22.9682 9.62099 21.7927 9.1341C20.6173 8.64721 19.3574 8.39661 18.0851 8.39661C16.8128 8.39661 15.553 8.64721 14.3775 9.1341C13.2021 9.62099 12.134 10.3346 11.2343 11.2343C10.3347 12.1339 9.62105 13.202 9.13416 14.3774C8.64727 15.5529 8.39667 16.8128 8.39667 18.0851M8.39667 18.0851V23.7367C8.39667 24.1649 8.56679 24.5756 8.86961 24.8784C9.17244 25.1813 9.58315 25.3514 10.0114 25.3514H11.6262C12.0544 25.3514 12.4651 25.1813 12.7679 24.8784C13.0708 24.5756 13.2409 24.1649 13.2409 23.7367V19.6998C13.2409 19.2715 13.0708 18.8608 12.7679 18.558C12.4651 18.2552 12.0544 18.0851 11.6262 18.0851H8.39667Z" stroke="#0099DA" stroke-width="1.61474" stroke-linecap="round" stroke-linejoin="round"/>
</g>
<defs>
<clipPath id="clip0_14_595">
<rect width="25.8359" height="25.8359" fill="white" transform="translate(5.16718 5.16711)"/>
</clipPath>
</defs>
</svg>
