<svg width="37" height="37" viewBox="0 0 37 37" fill="none" xmlns="http://www.w3.org/2000/svg">
<rect width="36.1702" height="36.1702" rx="18.0851" fill="#FF8F32" fill-opacity="0.16"/>
<g clip-path="url(#clip0_14_613)">
<path d="M13.6445 21.3145C16.5429 21.3145 18.8924 18.965 18.8924 16.0666C18.8924 13.1683 16.5429 10.8187 13.6445 10.8187C10.7462 10.8187 8.39661 13.1683 8.39661 16.0666C8.39661 18.965 10.7462 21.3145 13.6445 21.3145Z" stroke="#FF8F32" stroke-width="1.61474" stroke-linecap="round" stroke-linejoin="round"/>
<path d="M6.19971 25.3515C7.00616 24.1115 8.10954 23.0926 9.40968 22.3873C10.7098 21.6819 12.1655 21.3125 13.6447 21.3125C15.1238 21.3125 16.5795 21.6819 17.8797 22.3873C19.1798 23.0926 20.2832 24.1115 21.0896 25.3515" stroke="#FF8F32" stroke-width="1.61474" stroke-linecap="round" stroke-linejoin="round"/>
<path d="M22.5256 21.3146C24.0047 21.3137 25.4605 21.6826 26.7608 22.3876C28.061 23.0926 29.1644 24.1114 29.9706 25.3514" stroke="#FF8F32" stroke-width="1.61474" stroke-linecap="round" stroke-linejoin="round"/>
<path d="M20.5769 11.1921C21.2948 10.9058 22.067 10.7816 22.8385 10.8283C23.6099 10.8751 24.3615 11.0916 25.0396 11.4625C25.7176 11.8334 26.3054 12.3495 26.7608 12.9739C27.2163 13.5983 27.5282 14.3156 27.6743 15.0745C27.8205 15.8334 27.7971 16.6153 27.6061 17.3641C27.415 18.113 27.0608 18.8104 26.569 19.4066C26.0771 20.0027 25.4596 20.4828 24.7607 20.8127C24.0617 21.1425 23.2986 21.3139 22.5257 21.3145" stroke="#FF8F32" stroke-width="1.61474" stroke-linecap="round" stroke-linejoin="round"/>
</g>
<defs>
<clipPath id="clip0_14_613">
<rect width="25.8359" height="25.8359" fill="white" transform="translate(5.16724 5.16711)"/>
</clipPath>
</defs>
</svg>
