<svg width="37" height="37" viewBox="0 0 37 37" fill="none" xmlns="http://www.w3.org/2000/svg">
<rect width="36.1702" height="36.1702" rx="18.0851" fill="#7A98EB" fill-opacity="0.2"/>
<path d="M24.5441 13.7791C25.4006 13.7791 26.222 14.1194 26.8277 14.725C27.4333 15.3307 27.7736 16.1521 27.7736 17.0086C27.7736 17.8651 27.4333 18.6865 26.8277 19.2922C26.222 19.8978 25.4006 20.2381 24.5441 20.2381" stroke="#7A98EB" stroke-width="1.61474" stroke-linecap="round" stroke-linejoin="round"/>
<path d="M15.9322 13.7791V25.6206C15.9322 25.9061 15.8188 26.1799 15.6169 26.3818C15.4151 26.5836 15.1413 26.697 14.8557 26.697H13.7793C13.4937 26.697 13.2199 26.5836 13.0181 26.3818C12.8162 26.1799 12.7028 25.9061 12.7028 25.6206V20.2381" stroke="#7A98EB" stroke-width="1.61474" stroke-linecap="round" stroke-linejoin="round"/>
<path d="M18.0851 13.7791L22.9551 9.72069C23.0966 9.60282 23.2688 9.52773 23.4515 9.50421C23.6341 9.48069 23.8197 9.50972 23.9865 9.5879C24.1532 9.66608 24.2942 9.79017 24.393 9.94562C24.4917 10.1011 24.5441 10.2815 24.544 10.4656V23.5515C24.5441 23.7357 24.4917 23.916 24.393 24.0715C24.2942 24.2269 24.1532 24.351 23.9865 24.4292C23.8197 24.5074 23.6341 24.5364 23.4515 24.5129C23.2688 24.4894 23.0966 24.4143 22.9551 24.2964L18.0851 20.238H9.4731C9.1876 20.238 8.91379 20.1246 8.7119 19.9227C8.51002 19.7209 8.39661 19.447 8.39661 19.1615V14.8556C8.39661 14.5701 8.51002 14.2963 8.7119 14.0944C8.91379 13.8925 9.1876 13.7791 9.4731 13.7791H18.0851Z" stroke="#7A98EB" stroke-width="1.61474" stroke-linecap="round" stroke-linejoin="round"/>
</svg>
