<svg width="37" height="37" viewBox="0 0 37 37" fill="none" xmlns="http://www.w3.org/2000/svg">
<rect width="36.1702" height="36.1702" rx="18.0851" fill="#F9523E" fill-opacity="0.14"/>
<g clip-path="url(#clip0_14_622)">
<path d="M18.0851 27.7735C23.4358 27.7735 27.7735 23.4358 27.7735 18.0851C27.7735 12.7343 23.4358 8.39661 18.0851 8.39661C12.7343 8.39661 8.39661 12.7343 8.39661 18.0851C8.39661 23.4358 12.7343 27.7735 18.0851 27.7735Z" stroke="#F9523E" stroke-width="1.61474" stroke-miterlimit="10"/>
<path d="M18.085 19.296C18.7538 19.296 19.296 18.7538 19.296 18.085C19.296 17.4161 18.7538 16.8739 18.085 16.8739C17.4161 16.8739 16.8739 17.4161 16.8739 18.085C16.8739 18.7538 17.4161 19.296 18.085 19.296Z" fill="#F9523E"/>
<path d="M22.5256 19.296C23.1945 19.296 23.7367 18.7538 23.7367 18.085C23.7367 17.4161 23.1945 16.8739 22.5256 16.8739C21.8568 16.8739 21.3146 17.4161 21.3146 18.085C21.3146 18.7538 21.8568 19.296 22.5256 19.296Z" fill="#F9523E"/>
<path d="M13.6445 19.296C14.3134 19.296 14.8556 18.7538 14.8556 18.085C14.8556 17.4161 14.3134 16.8739 13.6445 16.8739C12.9757 16.8739 12.4335 17.4161 12.4335 18.085C12.4335 18.7538 12.9757 19.296 13.6445 19.296Z" fill="#F9523E"/>
</g>
<defs>
<clipPath id="clip0_14_622">
<rect width="25.8359" height="25.8359" fill="white" transform="translate(5.16711 5.16711)"/>
</clipPath>
</defs>
</svg>
