<svg width="37" height="37" viewBox="0 0 37 37" fill="none" xmlns="http://www.w3.org/2000/svg">
<rect width="36.1702" height="36.1702" rx="18.0851" fill="#07F258" fill-opacity="0.12"/>
<path d="M24.7594 28.2041C26.6619 28.2041 28.2041 26.6619 28.2041 24.7594C28.2041 22.8569 26.6619 21.3146 24.7594 21.3146C22.8569 21.3146 21.3146 22.8569 21.3146 24.7594C21.3146 26.6619 22.8569 28.2041 24.7594 28.2041Z" stroke="#07F258" stroke-width="1.61474" stroke-linecap="round" stroke-linejoin="round"/>
<path d="M28.8501 28.85L27.7736 27.7735" stroke="#07F258" stroke-width="1.61474" stroke-linecap="round" stroke-linejoin="round"/>
<path d="M19.5599 28.85H13.7791C10.0114 28.85 8.39665 26.697 8.39665 23.4675V14.3173C8.39665 11.0879 10.0114 8.93488 13.7791 8.93488H22.3911C26.1588 8.93488 27.7736 11.0879 27.7736 14.3173V19.1616" stroke="#07F258" stroke-width="1.61474" stroke-miterlimit="10" stroke-linecap="round" stroke-linejoin="round"/>
<path d="M12.7026 15.9321H19.1616" stroke="#07F258" stroke-width="1.61474" stroke-miterlimit="10" stroke-linecap="round" stroke-linejoin="round"/>
<path d="M12.7026 21.3146H15.523" stroke="#07F258" stroke-width="1.61474" stroke-miterlimit="10" stroke-linecap="round" stroke-linejoin="round"/>
</svg>
